<?xml version="1.0" encoding="UTF-8"?>
<svg version="1.1" xmlns="http://www.w3.org/2000/svg" width="1024" height="1024">
<path d="M0 0 C337.92 0 675.84 0 1024 0 C1024 337.92 1024 675.84 1024 1024 C686.08 1024 348.16 1024 0 1024 C0 686.08 0 348.16 0 0 Z " fill="#FBF4E9" transform="translate(0,0)"/>
<path d="M0 0 C0.70350586 0.19174805 1.40701172 0.38349609 2.13183594 0.58105469 C37.01531068 10.24595637 70.03414409 28.04903071 96.53125 52.71875 C98.58044082 54.61230608 100.6674028 56.4059786 102.8125 58.1875 C148.85193819 98.49549792 173.87132029 160.3547306 177.859375 220.42480469 C181.01625195 278.2351139 163.79273584 334.51936336 131 382 C130.59072266 382.59538574 130.18144531 383.19077148 129.75976562 383.80419922 C120.09466824 397.78435015 109.55885664 411.14752377 98.90234375 424.37890625 C96.50991891 427.35325066 94.15392112 430.35412078 91.80834961 433.36547852 C87.30203234 439.14945511 82.67954423 444.80694417 77.91821289 450.3828125 C74.50760584 454.38073724 71.20390944 458.45046694 67.9375 462.56640625 C61.45615446 470.70728986 54.78178554 478.69659046 48.16479492 486.72729492 C42.70460606 493.3551458 37.25791029 499.9938897 31.83984375 506.65625 C27.75595496 511.66927751 23.62605972 516.63698407 19.4375 521.5625 C15.52903365 526.16053726 11.70768041 530.81455362 7.95703125 535.54296875 C4.35294869 540.06785483 0.66894134 544.52768702 -3 549 C-4.39596765 550.70822358 -5.79179898 552.41655857 -7.1875 554.125 C-9.85960985 557.39194474 -12.53750108 560.65392513 -15.22265625 563.91015625 C-16.08334717 564.95393433 -16.08334717 564.95393433 -16.96142578 566.01879883 C-18.15879316 567.47064355 -19.35638619 568.92230221 -20.55419922 570.3737793 C-24.11370844 574.69235075 -27.64684556 579.03067972 -31.15795898 583.38867188 C-33.28255202 586.01956826 -35.42145163 588.63844204 -37.56738281 591.25195312 C-38.87245377 592.84437099 -40.16726405 594.44518406 -41.4609375 596.046875 C-47.38542237 603.07310617 -53.77321041 607.59741798 -63 609 C-73.89320572 609.81133767 -82.56358001 608.94701666 -91.125 601.8125 C-98.03283747 595.2769412 -103.9031866 587.9271915 -109.72192383 580.43530273 C-112.88773178 576.37196351 -116.14821242 572.41091717 -119.5 568.5 C-123.76893443 563.51591099 -127.8488309 558.41187387 -131.875 553.23046875 C-134.99147918 549.2374798 -138.20533621 545.34689437 -141.5 541.5 C-145.76875118 536.51574792 -149.84882342 531.41188349 -153.875 526.23046875 C-157.42622797 521.68045792 -161.1227268 517.27510087 -164.87719727 512.89233398 C-168.17112726 509.02828949 -171.32599217 505.07439937 -174.4375 501.0625 C-178.71002924 495.55796744 -183.16335105 490.2432477 -187.72363281 484.97558594 C-191.27549186 480.86693644 -194.70880243 476.68225808 -198.078125 472.421875 C-201.66376736 467.90338259 -205.34123694 463.45931292 -209 459 C-210.50028317 457.16689838 -212.00028408 455.33356573 -213.5 453.5 C-215.70228166 450.80790053 -217.90488636 448.11607386 -220.109375 445.42578125 C-222.40849112 442.61901358 -224.70442743 439.80966658 -227 437 C-227.7432251 436.09241943 -227.7432251 436.09241943 -228.50146484 435.16650391 C-235.32284429 426.83341541 -242.07679114 418.46669714 -248.57470703 409.87744141 C-250.20650274 407.72798799 -251.85189391 405.5891972 -253.49609375 403.44921875 C-298.44102547 344.62491952 -323.96162016 275.97934114 -314.47607422 201.29663086 C-305.67801989 139.72473692 -273.99133166 80.93620127 -224 43 C-223.43313477 42.5673584 -222.86626953 42.1347168 -222.28222656 41.68896484 C-213.82348874 35.26059391 -205.18099941 29.36538033 -196 24 C-195.4013916 23.64196289 -194.8027832 23.28392578 -194.18603516 22.91503906 C-137.30879343 -11.05515504 -63.38357941 -17.69676142 0 0 Z " fill="#E93B29" transform="translate(581,203)"/>
<path d="M0 0 C2.42225866 2.21860234 4.80419446 4.47695294 7.18432617 6.74072266 C8.1337207 7.61083984 8.1337207 7.61083984 9.10229492 8.49853516 C24.17375917 22.74661775 35.76430287 41.93750483 44.18432617 60.74072266 C44.48822266 61.41619141 44.79211914 62.09166016 45.10522461 62.78759766 C53.56434729 81.9989243 58.16461691 102.80357536 59.18432617 123.74072266 C59.24209229 124.85423096 59.24209229 124.85423096 59.30102539 125.99023438 C60.48572687 152.7314812 53.97514951 179.05204709 44.18432617 203.74072266 C41.54432617 203.74072266 38.90432617 203.74072266 36.18432617 203.74072266 C35.90758057 202.86746338 35.63083496 201.9942041 35.34570312 201.09448242 C34.3093219 197.85894553 33.25450115 194.63069645 32.18652344 191.40551758 C31.72811871 190.00823506 31.2772132 188.60846913 30.83398438 187.20629883 C30.19558534 185.19124041 29.53076308 183.18664676 28.86010742 181.18212891 C28.46734619 179.97242432 28.07458496 178.76271973 27.66992188 177.51635742 C27.17967529 176.60039795 26.68942871 175.68443848 26.18432617 174.74072266 C24.53432617 174.41072266 22.88432617 174.08072266 21.18432617 173.74072266 C16.23432617 187.10572266 16.23432617 187.10572266 11.18432617 200.74072266 C-5.25147161 192.52282376 -5.25147161 192.52282376 -7.60329437 186.8363266 C-8.78413888 181.43929167 -8.42395043 175.96454448 -8.18286133 170.48291016 C-8.15670656 168.72608375 -8.13679834 166.96915431 -8.12283325 165.21218872 C-8.06969916 160.61608468 -7.93251725 156.02630444 -7.77697754 151.43267822 C-7.63302756 146.73414681 -7.56966856 142.03457957 -7.49926758 137.33447266 C-7.34969904 128.13379644 -7.11119839 118.93778781 -6.81567383 109.74072266 C-5.82567383 109.41072266 -4.83567383 109.08072266 -3.81567383 108.74072266 C-3.78880104 106.92830214 -3.76933667 105.11577032 -3.75317383 103.30322266 C-3.73577148 101.78921875 -3.73577148 101.78921875 -3.71801758 100.24462891 C-3.52954707 97.80051199 -3.52954707 97.80051199 -4.81567383 96.74072266 C-6.07379883 96.74072266 -7.33192383 96.74072266 -8.62817383 96.74072266 C-10.83740234 96.47680664 -10.83740234 96.47680664 -12.81567383 95.74072266 C-13.93261719 94.1159668 -13.93261719 94.1159668 -14.78051758 91.96337891 C-15.10818115 91.1501416 -15.43584473 90.3369043 -15.7734375 89.49902344 C-16.11737549 88.58878418 -16.46131348 87.67854492 -16.81567383 86.74072266 C-17.19763916 85.75442871 -17.57960449 84.76813477 -17.97314453 83.75195312 C-19.1917414 80.56820481 -20.38243902 77.37526915 -21.56567383 74.17822266 C-21.97688477 73.07414062 -22.3880957 71.97005859 -22.81176758 70.83251953 C-23.81559875 68.1361823 -24.81684086 65.43891452 -25.81567383 62.74072266 C-26.80567383 62.74072266 -27.79567383 62.74072266 -28.81567383 62.74072266 C-29.1534082 63.80033203 -29.49114258 64.85994141 -29.83911133 65.95166016 C-30.28931375 67.3397843 -30.73985208 68.72779953 -31.19067383 70.11572266 C-31.41239258 70.81439453 -31.63411133 71.51306641 -31.86254883 72.23291016 C-33.58911133 77.51416016 -33.58911133 77.51416016 -35.81567383 79.74072266 C-37.18661734 78.82676032 -38.55755402 77.91278774 -39.9284668 76.9987793 C-41.2190574 76.13844121 -42.5097524 75.27825973 -43.80053711 74.41821289 C-48.05542555 71.58274905 -52.30771861 68.74345202 -56.55786133 65.90087891 C-65.75586869 59.75309908 -74.95613552 53.61306493 -84.25317383 47.61572266 C-84.93839111 47.17212402 -85.6236084 46.72852539 -86.32958984 46.27148438 C-89.11098298 44.4730416 -91.89716219 42.69031409 -94.71411133 40.94775391 C-95.51075195 40.44630859 -96.30739258 39.94486328 -97.12817383 39.42822266 C-98.08143555 38.84621094 -98.08143555 38.84621094 -99.05395508 38.25244141 C-103.46742211 34.46527568 -105.61039626 29.21015373 -107.61254883 23.88134766 C-107.85104553 23.25089539 -108.08954224 22.62044312 -108.33526611 21.97088623 C-108.83280123 20.65120492 -109.32672247 19.33015584 -109.81713867 18.0078125 C-110.5699109 15.97930494 -111.33441731 13.95551731 -112.10083008 11.93212891 C-115.81567383 2.04523185 -115.81567383 2.04523185 -115.81567383 -0.25927734 C-118.12567383 -0.25927734 -120.43567383 -0.25927734 -122.81567383 -0.25927734 C-125.04646785 4.5663062 -127.10917373 9.42164832 -128.96411133 14.40478516 C-129.33020508 15.38189453 -129.69629883 16.35900391 -130.07348633 17.36572266 C-130.81988977 19.37005078 -131.55684428 21.3779224 -132.28442383 23.38916016 C-136.16965667 33.65921621 -141.03231135 38.81113237 -150.50317383 44.17822266 C-156.48111947 47.62322882 -162.07314086 51.33170353 -167.62304688 55.43237305 C-173.5181729 59.69469747 -179.5823841 63.70917516 -185.63476562 67.74365234 C-187.90873922 69.26111954 -190.17765655 70.78596075 -192.4465332 72.31103516 C-193.89349869 73.27763044 -195.34075337 74.24379298 -196.78833008 75.20947266 C-197.46533463 75.66559937 -198.14233917 76.12172607 -198.83985901 76.5916748 C-203.58679701 79.74072266 -203.58679701 79.74072266 -205.81567383 79.74072266 C-206.6524666 77.1167796 -207.48524325 74.49167881 -208.31567383 71.86572266 C-208.67338867 70.74617188 -208.67338867 70.74617188 -209.03833008 69.60400391 C-210.81567383 63.96728516 -210.81567383 63.96728516 -210.81567383 61.74072266 C-212.78276111 62.24392371 -212.78276111 62.24392371 -214.81567383 63.74072266 C-216.00475612 66.15956833 -216.94524418 68.40933673 -217.83129883 70.93603516 C-218.22233795 71.99720047 -218.22233795 71.99720047 -218.62127686 73.07980347 C-219.44959588 75.33710831 -220.25778355 77.60103617 -221.06567383 79.86572266 C-221.62425757 81.39875346 -222.18413839 82.93131231 -222.74536133 84.46337891 C-224.11723483 88.21718605 -225.47110029 91.97705516 -226.81567383 95.74072266 C-227.45375977 95.78970703 -228.0918457 95.83869141 -228.74926758 95.88916016 C-229.98870117 96.00130859 -229.98870117 96.00130859 -231.25317383 96.11572266 C-232.07688477 96.18533203 -232.9005957 96.25494141 -233.74926758 96.32666016 C-234.43118164 96.46330078 -235.1130957 96.59994141 -235.81567383 96.74072266 C-236.93823514 98.98584528 -236.94981145 100.25528915 -236.94067383 102.74072266 C-236.94325195 103.44197266 -236.94583008 104.14322266 -236.94848633 104.86572266 C-236.92944619 106.83226041 -236.92944619 106.83226041 -235.81567383 108.74072266 C-234.82567383 109.07072266 -233.83567383 109.40072266 -232.81567383 109.74072266 C-232.49027971 119.86736299 -232.24204878 129.99274737 -232.09030342 140.12356377 C-232.01744064 144.82889171 -231.91877337 149.53062709 -231.75952148 154.23388672 C-231.60658446 158.7794688 -231.52354147 163.32161444 -231.48739243 167.86957169 C-231.46166173 169.59791313 -231.41140264 171.32608059 -231.33545303 173.05294418 C-230.78152382 186.17826797 -230.78152382 186.17826797 -234.19216156 190.47470856 C-238.75621793 194.74662681 -244.55374306 198.71235414 -250.81567383 199.74072266 C-252.1102377 196.53355088 -253.40080092 193.32478362 -254.69067383 190.11572266 C-255.05547852 189.21208984 -255.4202832 188.30845703 -255.79614258 187.37744141 C-257.6061505 182.86887621 -259.35236989 178.37708565 -260.81567383 173.74072266 C-262.13567383 173.74072266 -263.45567383 173.74072266 -264.81567383 173.74072266 C-268.58205638 183.70675208 -272.26811104 193.69452716 -275.81567383 203.74072266 C-278.45567383 203.74072266 -281.09567383 203.74072266 -283.81567383 203.74072266 C-301.74308828 158.06973022 -305.03035557 108.69272952 -285.50317383 62.80322266 C-265.54982974 17.6763536 -229.89430301 -17.21680338 -183.74560547 -35.09936523 C-170.42103075 -40.08888497 -156.96113107 -43.53643319 -142.81567383 -45.25927734 C-141.91333008 -45.37142578 -141.01098633 -45.48357422 -140.08129883 -45.59912109 C-89.19276965 -50.84610221 -37.97974522 -34.20452703 0 0 Z " fill="#FBF4EA" transform="translate(631.815673828125,305.25927734375)"/>
<path d="M0 0 C8.48678493 7.15552454 14.80318043 16.08484654 17.27734375 26.99609375 C17.6736393 31.88691138 17.62758349 36.75213929 17.5703125 41.65625 C17.56729126 42.88565308 17.56427002 44.11505615 17.56115723 45.38171387 C17.54555128 49.94076016 17.50366782 54.49968606 17.46484375 59.05859375 C17.40296875 69.26796875 17.34109375 79.47734375 17.27734375 89.99609375 C-15.72265625 89.99609375 -48.72265625 89.99609375 -82.72265625 89.99609375 C-82.80515625 80.17859375 -82.88765625 70.36109375 -82.97265625 60.24609375 C-83.00907227 57.17071289 -83.04548828 54.09533203 -83.08300781 50.92675781 C-83.09470392 48.4550852 -83.10489355 45.98340481 -83.11328125 43.51171875 C-83.13374512 42.25601074 -83.15420898 41.00030273 -83.17529297 39.70654297 C-83.18067369 25.93728945 -78.98340551 13.58496155 -69.59765625 3.30859375 C-50.22913959 -14.81725259 -21.10887887 -15.53637713 0 0 Z " fill="#FBF4E9" transform="translate(544.72265625,575.00390625)"/>
<path d="M0 0 C1.8170343 -0.01418472 1.8170343 -0.01418472 3.67077637 -0.02865601 C4.98018188 -0.02258331 6.2895874 -0.01651062 7.63867188 -0.01025391 C8.99483395 -0.01227492 10.35099497 -0.01518658 11.70715332 -0.01895142 C14.54852654 -0.02337356 17.38961672 -0.01694764 20.23095703 -0.00292969 C23.87294291 0.01416263 27.51426557 0.00432079 31.15622711 -0.01364708 C33.95637 -0.02448816 36.75635567 -0.0210372 39.5565033 -0.0132637 C41.55236237 -0.01028939 43.54822756 -0.0193998 45.54406738 -0.02865601 C46.75542358 -0.01919952 47.96677979 -0.00974304 49.21484375 0 C50.28279175 0.00238678 51.35073975 0.00477356 52.4510498 0.00723267 C55.10742188 0.38818359 55.10742188 0.38818359 56.95243835 1.47431946 C58.73327975 4.42526068 58.4814141 6.97522484 58.47973633 10.39819336 C58.48338699 11.1074295 58.48703766 11.81666565 58.49079895 12.5473938 C58.4989051 14.89170271 58.48529578 17.23532061 58.47070312 19.57958984 C58.47018458 21.20718892 58.47070206 22.83478863 58.47221375 24.46238708 C58.47212402 27.8728877 58.46169369 31.28315193 58.44360352 34.69360352 C58.42089823 39.07093745 58.42037544 43.44792645 58.42712116 47.82530308 C58.43045797 51.18555278 58.42383682 54.54572345 58.41399193 57.90595818 C58.410136 59.52034021 58.40899333 61.13473103 58.41057777 62.7491169 C58.4109475 65.00210542 58.3983554 67.25464683 58.38208008 69.50756836 C58.37516899 71.43258934 58.37516899 71.43258934 58.36811829 73.39649963 C58.10742188 76.38818359 58.10742188 76.38818359 56.10742188 78.38818359 C53.48864746 78.64215088 53.48864746 78.64215088 50.12890625 78.64697266 C48.87420532 78.65327698 47.61950439 78.6595813 46.32678223 78.66607666 C44.95157735 78.66249698 43.57637376 78.65839504 42.20117188 78.65380859 C40.79634534 78.65515532 39.39151927 78.65709592 37.98669434 78.65960693 C35.04105191 78.66255785 32.09553069 78.65826168 29.14990234 78.64892578 C25.37003685 78.63753114 21.59045535 78.6440908 17.81060028 78.65607071 C14.90930025 78.66329024 12.00806779 78.66100098 9.10676575 78.65581512 C7.71287503 78.65447888 6.31897821 78.65612547 4.9250946 78.66077423 C2.97871006 78.6658407 1.03230407 78.65675229 -0.9140625 78.64697266 C-2.0227771 78.64538147 -3.1314917 78.64379028 -4.27380371 78.64215088 C-6.89257812 78.38818359 -6.89257812 78.38818359 -8.89257812 76.38818359 C-9.15327454 73.39649963 -9.15327454 73.39649963 -9.16723633 69.50756836 C-9.17234726 68.80008453 -9.17745819 68.09260071 -9.182724 67.36367798 C-9.19665374 65.0188965 -9.1956607 62.67440785 -9.19335938 60.32958984 C-9.19724456 58.70295603 -9.20157886 57.07632324 -9.2063446 55.44969177 C-9.21381416 52.03747268 -9.21351033 48.62535703 -9.20825195 45.21313477 C-9.2024574 40.83692799 -9.21938414 36.46114445 -9.24259663 32.08500767 C-9.25731762 28.72472145 -9.2582079 25.36453753 -9.2550869 22.00422478 C-9.25560097 20.39065653 -9.26085484 18.77708268 -9.27089882 17.16354561 C-9.28321418 14.9081473 -9.27650176 12.65357806 -9.26489258 10.39819336 C-9.265522 9.11405045 -9.26615143 7.82990753 -9.26679993 6.5068512 C-8.89257812 3.38818359 -8.89257812 3.38818359 -7.7375946 1.47431946 C-5.09856456 -0.07924129 -3.05456519 0.00682671 0 0 Z " fill="#FBF5EA" transform="translate(486.892578125,417.61181640625)"/>
<path d="M0 0 C0.66 0.33 1.32 0.66 2 1 C1.51781006 2.30529663 1.51781006 2.30529663 1.02587891 3.63696289 C-0.65342996 9.55636474 -0.359007 15.70348523 -0.4140625 21.80859375 C-0.43170654 22.98103638 -0.44935059 24.153479 -0.4675293 25.3614502 C-0.5303557 29.71999673 -0.57670824 34.07876819 -0.625 38.4375 C-0.74875 48.193125 -0.8725 57.94875 -1 68 C30.68 68 62.36 68 95 68 C95.33 49.52 95.66 31.04 96 12 C96.33 12 96.66 12 97 12 C97 31.14 97 50.28 97 70 C64 70 31 70 -3 70 C-3.061875 60.120625 -3.12375 50.24125 -3.1875 40.0625 C-3.22846802 35.40846069 -3.22846802 35.40846069 -3.27026367 30.66040039 C-3.27903151 28.1811563 -3.28667474 25.70190786 -3.29296875 23.22265625 C-3.30831665 21.95160034 -3.32366455 20.68054443 -3.33947754 19.37097168 C-3.34156972 12.23037085 -2.7176508 6.62329429 0 0 Z " fill="#FDFDFB" transform="translate(465,595)"/>
<path d="M0 0 C2.1640625 -0.29296875 2.1640625 -0.29296875 4.625 -0.1875 C5.44226563 -0.16042969 6.25953125 -0.13335937 7.1015625 -0.10546875 C8.04128906 -0.05326172 8.04128906 -0.05326172 9 0 C9 0.33 9 0.66 9 1 C7.35 1.33 5.7 1.66 4 2 C3.87625 2.639375 3.7525 3.27875 3.625 3.9375 C3.41875 4.618125 3.2125 5.29875 3 6 C2.01 6.495 2.01 6.495 1 7 C0.67 5.35 0.34 3.7 0 2 C0.06000106 3.6260287 0.1487885 5.25101549 0.25 6.875 C0.29640625 7.77992188 0.3428125 8.68484375 0.390625 9.6171875 C0.69226563 10.79667969 0.69226563 10.79667969 1 12 C2.32 12.66 3.64 13.32 5 14 C5 40.07 5 66.14 5 93 C3.02 93.99 3.02 93.99 1 95 C1.495 94.01 1.495 94.01 2 93 C2.12215485 90.4987767 2.18563281 88.02352013 2.20532227 85.52099609 C2.21522186 84.75017197 2.22512146 83.97934784 2.23532104 83.18516541 C2.2669683 80.6312876 2.29170617 78.07739118 2.31640625 75.5234375 C2.336973 73.75509145 2.35796939 71.98675035 2.37937927 70.21841431 C2.43462881 65.55940757 2.48402536 60.90035625 2.53222656 56.24127197 C2.58242056 51.48893253 2.63811758 46.73665798 2.69335938 41.984375 C2.80097619 32.65630541 2.90241333 23.32817953 3 14 C2.360625 13.87625 1.72125 13.7525 1.0625 13.625 C0.381875 13.41875 -0.29875 13.2125 -1 13 C-2.5635348 9.87293041 -2.39958487 6.42017557 -2 3 C-1.34 2.01 -0.68 1.02 0 0 Z " fill="#E00F06" transform="translate(396,401)"/>
<path d="M0 0 C0.61328125 1.78125 0.61328125 1.78125 1 4 C-0.2633819 6.43963401 -1.54105377 8.69045044 -3 11 C-4.61549469 13.85431198 -4.61549469 13.85431198 -5 17 C-6.33333333 18.33333333 -7.66666667 19.66666667 -9 21 C-10.34270821 22.99371825 -11.67653494 24.9934562 -13 27 C-13.49282471 27.47284424 -13.98564941 27.94568848 -14.4934082 28.43286133 C-16.1837119 30.19109491 -17.02833038 31.79947444 -18.04296875 34.01171875 C-18.39423828 34.76904297 -18.74550781 35.52636719 -19.10742188 36.30664062 C-19.46384766 37.09232422 -19.82027344 37.87800781 -20.1875 38.6875 C-20.73954102 39.88342773 -20.73954102 39.88342773 -21.30273438 41.10351562 C-22.2077297 43.06629769 -23.10465652 45.03279639 -24 47 C-25.14189754 43.57430738 -24.94724377 43.24220165 -23.48046875 40.1484375 C-23.12251221 39.38764893 -22.76455566 38.62686035 -22.39575195 37.84301758 C-21.99702881 37.02857178 -21.59830566 36.21412598 -21.1875 35.375 C-20.57878052 34.11369263 -20.57878052 34.11369263 -19.95776367 32.8269043 C-14.31451885 21.32805185 -8.07310754 9.98515933 0 0 Z " fill="#E3291D" transform="translate(309,297)"/>
<path d="M0 0 C0.99 0 1.98 0 3 0 C4.5696991 15.86517305 4.40504355 31.23837531 2 47 C1.34 46.34 0.68 45.68 0 45 C0.0234375 42.76953125 0.0234375 42.76953125 0.375 39.8125 C0.98803151 33.28079525 1.12185319 26.80952106 1.125 20.25 C1.12935059 19.2803833 1.13370117 18.3107666 1.13818359 17.31176758 C1.12719199 11.46173874 0.75211382 5.80202092 0 0 Z " fill="#F8E0DB" transform="translate(687,416)"/>
<path d="M0 0 C0.33 0 0.66 0 1 0 C1.85481391 5.89200451 2.1344851 11.58258171 2.09765625 17.53125 C2.0962413 18.40777222 2.09482635 19.28429443 2.09336853 20.18737793 C2.08781768 22.95828821 2.07527461 25.72911457 2.0625 28.5 C2.05747864 30.39062382 2.05291685 32.28124893 2.04882812 34.171875 C2.0378644 38.78128183 2.02063425 43.39062673 2 48 C1.34 48 0.68 48 0 48 C-0.33 48.66 -0.66 49.32 -1 50 C-0.9278125 49.071875 -0.855625 48.14375 -0.78125 47.1875 C0.31372695 31.47526393 0.09419184 15.74018082 0 0 Z " fill="#E0120C" transform="translate(690,415)"/>
<path d="M0 0 C0 3.69418201 -1.28179295 5.77836178 -3 9 C-3.66 9 -4.32 9 -5 9 C-5.268125 9.804375 -5.53625 10.60875 -5.8125 11.4375 C-6.204375 12.283125 -6.59625 13.12875 -7 14 C-7.99 14.33 -8.98 14.66 -10 15 C-10.99 16.485 -10.99 16.485 -12 18 C-12.66 17.67 -13.32 17.34 -14 17 C-12.23161621 14.72722151 -10.4604139 12.45674036 -8.6875 10.1875 C-8.18798828 9.54490234 -7.68847656 8.90230469 -7.17382812 8.24023438 C-6.68720703 7.61826172 -6.20058594 6.99628906 -5.69921875 6.35546875 C-5.25408936 5.78465576 -4.80895996 5.21384277 -4.3503418 4.62573242 C-2.98453584 2.98138206 -1.53421666 1.4869494 0 0 Z " fill="#E12319" transform="translate(324,278)"/>
<path d="M0 0 C2.1640625 -0.29296875 2.1640625 -0.29296875 4.625 -0.1875 C5.44226563 -0.16042969 6.25953125 -0.13335937 7.1015625 -0.10546875 C8.04128906 -0.05326172 8.04128906 -0.05326172 9 0 C9 0.33 9 0.66 9 1 C7.35 1.33 5.7 1.66 4 2 C3.87625 2.639375 3.7525 3.27875 3.625 3.9375 C3.41875 4.618125 3.2125 5.29875 3 6 C2.01 6.495 2.01 6.495 1 7 C0.67 5.35 0.34 3.7 0 2 C0.0870005 3.62600941 0.1951781 5.25089678 0.3125 6.875 C0.37050781 7.77992188 0.42851562 8.68484375 0.48828125 9.6171875 C0.7882039 12.36221601 0.7882039 12.36221601 4 14 C1.5625 13.625 1.5625 13.625 -1 13 C-2.5635348 9.87293041 -2.39958487 6.42017557 -2 3 C-1.34 2.01 -0.68 1.02 0 0 Z " fill="#E1261C" transform="translate(396,401)"/>
<path d="M0 0 C6.0546875 -0.1953125 6.0546875 -0.1953125 8 0 C10 2 10 2 10.1953125 4.1640625 C10.17210937 4.97617187 10.14890625 5.78828125 10.125 6.625 C10.10695313 7.44226563 10.08890625 8.25953125 10.0703125 9.1015625 C10.03550781 10.04128906 10.03550781 10.04128906 10 11 C8.68 10.67 7.36 10.34 6 10 C6.99 10 7.98 10 9 10 C8.01 9.67 7.02 9.34 6 9 C6 6.69 6 4.38 6 2 C3.03 1.505 3.03 1.505 0 1 C0 0.67 0 0.34 0 0 Z " fill="#E94432" transform="translate(618,402)"/>
<path d="M0 0 C0.85464844 -0.01417969 1.70929687 -0.02835938 2.58984375 -0.04296875 C5.20159303 0.20046444 6.81750652 0.8696732 9.0625 2.1875 C5.99716836 3.72016582 2.79495728 3.29026471 -0.5625 3.25 C-1.26890625 3.24548828 -1.9753125 3.24097656 -2.703125 3.23632812 C-4.44795275 3.22453875 -6.192737 3.20660324 -7.9375 3.1875 C-7.9375 2.5275 -7.9375 1.8675 -7.9375 1.1875 C-5.02663331 0.2172111 -3.03526315 0.02282153 0 0 Z " fill="#F9E6E0" transform="translate(510.9375,563.8125)"/>
<path d="M0 0 C6.67491831 -0.45510807 12.59374557 1.2327574 19 3 C15.76549898 4.01548288 13.22692818 3.96773311 9.875 3.5625 C6.44523255 3.14565931 6.44523255 3.14565931 3 3 C3 2.34 3 1.68 3 1 C2.01 0.67 1.02 0.34 0 0 Z " fill="#E0150D" transform="translate(557,199)"/>
<path d="M0 0 C0 4.01847141 -1.22856766 5.15563523 -4 8 C-7.25 9.3125 -7.25 9.3125 -10 10 C-3.84965831 2.51708428 -3.84965831 2.51708428 0 0 Z " fill="#E12319" transform="translate(357,246)"/>
<path d="M0 0 C1.08174162 3.36541838 0.92538169 4.29847322 0 8 C-3.3 8 -6.6 8 -10 8 C-10 7.67 -10 7.34 -10 7 C-7.36 7 -4.72 7 -2 7 C-1.855625 6.21625 -1.71125 5.4325 -1.5625 4.625 C-1 2 -1 2 0 0 Z " fill="#E01A11" transform="translate(358,502)"/>
<path d="M0 0 C1.88391785 3.26545761 2.49287967 6.28111761 3 10 C2.01 10.495 2.01 10.495 1 11 C-1.30441554 7.54337669 -1.25860135 6.05142119 -1 2 C-0.67 1.34 -0.34 0.68 0 0 Z " fill="#FAE7E0" transform="translate(272,498)"/>
<path d="M0 0 C1.485 0.99 1.485 0.99 3 2 C3.99 2 4.98 2 6 2 C6.33 4.31 6.66 6.62 7 9 C4.03595495 6.19195732 1.55500981 3.81684226 0 0 Z " fill="#DF1E15" transform="translate(408,704)"/>
<path d="M0 0 C0.33 0 0.66 0 1 0 C1.77916092 5.02125926 2.13016601 8.97703996 1 14 C0.67 14 0.34 14 0 14 C-0.19532961 12.2300132 -0.38098882 10.45895721 -0.5625 8.6875 C-0.66691406 7.70136719 -0.77132813 6.71523438 -0.87890625 5.69921875 C-1 3 -1 3 0 0 Z " fill="#E53023" transform="translate(268,399)"/>
<path d="M0 0 C2 1.0625 2 1.0625 4 3 C4.25 6.6875 4.25 6.6875 4 10 C3.34 9.34 2.68 8.68 2 8 C2 7.01 2 6.02 2 5 C1.01 5.33 0.02 5.66 -1 6 C-0.67 4.02 -0.34 2.04 0 0 Z " fill="#E64330" transform="translate(737,341)"/>
<path d="M0 0 C0 3.69418201 -1.28179295 5.77836178 -3 9 C-3.66 8.67 -4.32 8.34 -5 8 C-4.45773019 4.20411134 -2.79872437 2.52788007 0 0 Z " fill="#E52C20" transform="translate(324,278)"/>
<path d="M0 0 C0.66 0.33 1.32 0.66 2 1 C2 1.66 2 2.32 2 3 C2.66 3.33 3.32 3.66 4 4 C2.35 4.66 0.7 5.32 -1 6 C-1.33 4.68 -1.66 3.36 -2 2 C-1.34 2 -0.68 2 0 2 C0 1.34 0 0.68 0 0 Z " fill="#FCFAF3" transform="translate(382,499)"/>
<path d="M0 0 C0.99 0 1.98 0 3 0 C3.125 3.375 3.125 3.375 3 7 C2.34 7.66 1.68 8.32 1 9 C0.67 6.03 0.34 3.06 0 0 Z " fill="#FBE9E0" transform="translate(687,416)"/>
<path d="M0 0 C2.18975773 3.28463659 2.99806563 6.20696275 4 10 C0.91910327 7.22719294 -0.68775452 4.93673644 -2 1 C-1.34 0.67 -0.68 0.34 0 0 Z " fill="#E01E13" transform="translate(310,576)"/>
<path d="M0 0 C3 3.625 3 3.625 3 7 C3.66 7.33 4.32 7.66 5 8 C3.68 8 2.36 8 1 8 C0.67 5.36 0.34 2.72 0 0 Z " fill="#E21E14" transform="translate(378,499)"/>
<path d="M0 0 C2.35953094 2.35953094 2.49141413 3.77895617 3 7 C2.01 7.33 1.02 7.66 0 8 C-1.125 2.25 -1.125 2.25 0 0 Z " fill="#F9EAE2" transform="translate(520,310)"/>
<path d="M0 0 C0.66 0.33 1.32 0.66 2 1 C0.35 2.65 -1.3 4.3 -3 6 C-3 4.68 -3 3.36 -3 2 C-2.01 1.34 -1.02 0.68 0 0 Z " fill="#E22318" transform="translate(372,235)"/>
</svg>
