<svg xmlns="http://www.w3.org/2000/svg" xmlns:xlink="http://www.w3.org/1999/xlink" width="500" zoomAndPan="magnify" viewBox="0 0 375 374.999991" height="500" preserveAspectRatio="xMidYMid meet" version="1.2"><defs><clipPath id="b005e6e10f"><path d="M 4.433594 4.433594 L 370.433594 4.433594 L 370.433594 370.433594 L 4.433594 370.433594 Z M 4.433594 4.433594 "/></clipPath></defs><g id="afcd0abc4f"><g clip-rule="nonzero" clip-path="url(#b005e6e10f)"><path style=" stroke:none;fill-rule:nonzero;fill:#ed1c24;fill-opacity:1;" d="M 370.433594 187.433594 C 370.433594 217.472656 363.195312 245.820312 350.367188 270.828125 C 348.078125 275.285156 345.609375 279.644531 342.964844 283.898438 C 340.320312 288.15625 337.503906 292.296875 334.519531 296.324219 C 331.535156 300.347656 328.390625 304.246094 325.089844 308.015625 C 321.785156 311.785156 318.332031 315.410156 314.734375 318.898438 C 311.132812 322.382812 307.398438 325.714844 303.523438 328.898438 C 299.652344 332.078125 295.65625 335.09375 291.535156 337.949219 C 287.417969 340.800781 283.1875 343.480469 278.847656 345.988281 C 274.507812 348.496094 270.074219 350.824219 265.546875 352.96875 C 241.855469 364.167969 215.375 370.433594 187.433594 370.433594 C 86.363281 370.433594 4.433594 288.5 4.433594 187.433594 C 4.433594 86.363281 86.363281 4.433594 187.433594 4.433594 C 288.5 4.433594 370.433594 86.363281 370.433594 187.433594 Z M 370.433594 187.433594 "/></g><path style=" stroke:none;fill-rule:nonzero;fill:#000000;fill-opacity:0.25;" d="M 350.367188 270.828125 C 348.078125 275.285156 345.609375 279.644531 342.964844 283.898438 C 340.320312 288.15625 337.503906 292.296875 334.519531 296.324219 C 331.535156 300.347656 328.390625 304.246094 325.089844 308.015625 C 321.785156 311.785156 318.332031 315.410156 314.734375 318.898438 C 311.132812 322.382812 307.398438 325.714844 303.523438 328.898438 C 299.652344 332.078125 295.65625 335.09375 291.535156 337.949219 C 287.417969 340.800781 283.1875 343.480469 278.847656 345.988281 C 274.507812 348.496094 270.074219 350.824219 265.546875 352.96875 L 157.914062 245.339844 L 126.988281 155.339844 L 139.390625 137.128906 L 149.183594 98.054688 Z M 350.367188 270.828125 "/><path style=" stroke:none;fill-rule:nonzero;fill:#ffffff;fill-opacity:1;" d="M 154.867188 104.730469 C 154.539062 103.9375 154.140625 103.175781 153.675781 102.453125 C 153.207031 101.730469 152.679688 101.054688 152.089844 100.425781 C 151.5 99.800781 150.859375 99.230469 150.164062 98.71875 C 149.472656 98.207031 148.738281 97.761719 147.964844 97.382812 C 147.191406 97.003906 146.390625 96.699219 145.5625 96.464844 C 144.734375 96.230469 143.890625 96.074219 143.03125 95.996094 C 142.175781 95.914062 141.316406 95.910156 140.460938 95.984375 C 139.601562 96.0625 138.757812 96.210938 137.925781 96.441406 L 106.472656 105.019531 C 105.722656 105.222656 104.996094 105.488281 104.289062 105.8125 C 103.578125 106.140625 102.902344 106.519531 102.257812 106.953125 C 101.613281 107.390625 101.003906 107.875 100.4375 108.40625 C 99.871094 108.941406 99.351562 109.515625 98.878906 110.136719 C 98.40625 110.753906 97.988281 111.40625 97.621094 112.09375 C 97.253906 112.78125 96.945312 113.492188 96.695312 114.230469 C 96.445312 114.964844 96.253906 115.71875 96.125 116.488281 C 96 117.253906 95.933594 118.027344 95.933594 118.808594 C 95.933594 207.230469 167.628906 278.933594 256.058594 278.933594 C 256.835938 278.929688 257.609375 278.867188 258.378906 278.738281 C 259.144531 278.609375 259.898438 278.421875 260.636719 278.171875 C 261.375 277.921875 262.085938 277.613281 262.773438 277.246094 C 263.460938 276.878906 264.113281 276.460938 264.730469 275.988281 C 265.351562 275.511719 265.925781 274.992188 266.460938 274.425781 C 266.996094 273.859375 267.480469 273.253906 267.914062 272.609375 C 268.351562 271.960938 268.730469 271.285156 269.054688 270.578125 C 269.382812 269.871094 269.648438 269.140625 269.851562 268.390625 L 278.429688 236.9375 C 278.660156 236.105469 278.808594 235.261719 278.886719 234.40625 C 278.960938 233.546875 278.957031 232.6875 278.875 231.832031 C 278.796875 230.972656 278.640625 230.128906 278.40625 229.300781 C 278.171875 228.472656 277.867188 227.671875 277.488281 226.898438 C 277.109375 226.125 276.664062 225.390625 276.152344 224.699219 C 275.640625 224.003906 275.070312 223.363281 274.445312 222.773438 C 273.816406 222.183594 273.140625 221.65625 272.417969 221.191406 C 271.695312 220.722656 270.933594 220.324219 270.140625 219.996094 L 235.828125 205.699219 C 235.125 205.40625 234.398438 205.167969 233.65625 204.988281 C 232.914062 204.8125 232.164062 204.691406 231.402344 204.636719 C 230.640625 204.578125 229.878906 204.582031 229.117188 204.648438 C 228.355469 204.710938 227.605469 204.835938 226.863281 205.023438 C 226.125 205.207031 225.402344 205.453125 224.699219 205.753906 C 224 206.054688 223.328125 206.410156 222.683594 206.820312 C 222.039062 207.230469 221.429688 207.6875 220.859375 208.195312 C 220.289062 208.703125 219.761719 209.253906 219.28125 209.847656 L 204.839844 227.464844 C 198.585938 224.503906 192.632812 221.027344 186.976562 217.039062 C 181.320312 213.054688 176.042969 208.613281 171.152344 203.71875 C 166.257812 198.828125 161.816406 193.550781 157.832031 187.894531 C 153.84375 182.238281 150.367188 176.285156 147.40625 170.03125 L 165.023438 155.625 C 165.617188 155.144531 166.167969 154.617188 166.671875 154.046875 C 167.179688 153.476562 167.640625 152.867188 168.046875 152.222656 C 168.457031 151.578125 168.8125 150.90625 169.113281 150.203125 C 169.414062 149.503906 169.660156 148.78125 169.84375 148.042969 C 170.03125 147.300781 170.15625 146.550781 170.222656 145.789062 C 170.285156 145.027344 170.289062 144.265625 170.234375 143.507812 C 170.175781 142.746094 170.058594 141.992188 169.878906 141.25 C 169.703125 140.507812 169.464844 139.785156 169.171875 139.078125 L 154.875 104.765625 Z M 154.867188 104.730469 "/></g></svg>