<svg xmlns="http://www.w3.org/2000/svg" xmlns:xlink="http://www.w3.org/1999/xlink" width="500" zoomAndPan="magnify" viewBox="0 0 375 374.999991" height="500" preserveAspectRatio="xMidYMid meet" version="1.2"><defs><clipPath id="88a0f018af"><path d="M 0.425781 0 L 374.574219 0 L 374.574219 374.8125 L 0.425781 374.8125 Z M 0.425781 0 "/></clipPath></defs><g id="3006078a23"><g clip-rule="nonzero" clip-path="url(#88a0f018af)"><path style=" stroke:none;fill-rule:nonzero;fill:#f04e37;fill-opacity:1;" d="M 185.472656 85.5 C 197.664062 85.066406 207.894531 94.601562 208.359375 106.789062 C 208.359375 106.988281 208.359375 107.222656 208.359375 107.421875 L 208.359375 166.613281 L 267.550781 166.613281 C 279.742188 166.613281 289.640625 176.511719 289.640625 188.703125 C 289.640625 200.894531 279.742188 210.792969 267.550781 210.792969 L 208.359375 210.792969 L 208.359375 269.984375 C 208.195312 282.171875 198.164062 291.9375 185.972656 291.773438 C 173.980469 291.605469 164.347656 281.941406 164.183594 269.984375 L 164.183594 210.792969 L 104.992188 210.792969 C 92.800781 210.792969 82.902344 200.894531 82.902344 188.703125 C 82.902344 176.511719 92.800781 166.613281 104.992188 166.613281 L 164.183594 166.613281 L 164.183594 107.421875 C 164.25 95.597656 173.648438 85.929688 185.472656 85.5 Z M 182.351562 0.0351562 C 80.941406 2.824219 0.257812 85.898438 0.425781 187.339844 C 0.191406 290.644531 83.765625 374.613281 187.101562 374.8125 C 290.40625 375.046875 374.34375 291.472656 374.574219 188.171875 C 374.574219 187.90625 374.574219 187.605469 374.574219 187.339844 C 374.742188 84.039062 291.101562 0.132812 187.800781 -0.0351562 C 185.972656 -0.0351562 184.179688 -0.0351562 182.351562 0.0351562 "/></g></g></svg>